<?xml version="1.0" encoding="iso-8859-1"?>
<!-- Generator: Adobe Illustrator 19.0.0, SVG Export Plug-In . SVG Version: 6.00 Build 0)  -->
<!-- License: CC0. Made by SVG Repo: https://www.svgrepo.com/svg/121228/checked -->
<svg version="1.1" id="Layer_1" xmlns="http://www.w3.org/2000/svg" xmlns:xlink="http://www.w3.org/1999/xlink" x="0px" y="0px"
	 viewBox="0 0 473.931 473.931" style="enable-background:new 0 0 473.931 473.931;" xml:space="preserve">
<circle style="fill:#A0BF19;" cx="236.966" cy="236.966" r="236.966"/>
<path style="fill:#C0DD19;" d="M412.978,139.044c-7.469-19.255-22.686-16.213-39.172-12.946
	c-9.848,2.05-53.646,14.87-122.943,87.943c-28.759,30.323-47.73,54.502-60.22,72.942c-7.629-9.369-16.37-19.394-25.549-28.576
	c-28.232-28.224-59.715-47.606-61.039-48.418c-13.212-8.075-30.462-3.921-38.559,9.28c-8.09,13.201-3.948,30.477,9.246,38.585
	c0.269,0.168,27.304,16.887,50.66,40.246c23.816,23.82,45.399,56.037,45.608,56.347c5.253,7.899,14.076,12.512,23.356,12.512
	c1.594,0,3.199-0.135,4.801-0.412c10.956-1.905,19.753-10.092,22.436-20.883c0.067-0.258,11.195-31.015,69.982-92.998
	c47.348-49.934,78.925-65.806,89.866-70.21c0.105-0.019,0.18-0.026,0.322-0.056c-0.052,0.011,0.355-0.176,1.014-0.468
	c1.878-0.707,2.885-0.977,2.941-0.992c-0.543,0.135-0.819,0.168-0.819,0.168l-0.019-0.097c5.063-2.208,14.54-6.282,14.746-6.372
	C413.914,168.776,418.553,153.423,412.978,139.044z"/>
</svg>
